<?xml version="1.0" standalone="no"?><!DOCTYPE svg PUBLIC "-//W3C//DTD SVG 1.1//EN"
  "http://www.w3.org/Graphics/SVG/1.1/DTD/svg11.dtd" [<!ENTITY nbsp " ">]>
<svg data-noselect="" viewBox="91.82189733792 87.12950009305555 598.7621644244705 449.07162331835286"
     width="598.7621644244705" ref="svg_canvas" height="449.07162331835286" preserveAspectRatio="none" version="1.1"
     xmlns="http://www.w3.org/2000/svg" style="background: #ffeee4;">
  <g id="shape_brs4A7rc97" ref="shape_brs4A7rc97" key="shape_brs4A7rc97"
     transform="translate(171.82189733792,232.05623266912) rotate(0,79.609064389078,79.609064389078) scale(1,1)"
     style="cursor:move;display:inline;opacity:1;" filter="">
    <g style="display:inline">
      <rect fill="rgba(0,0,0,0)" width="179.21812877816" height="179.21812877816" x="-10" y="-10"></rect>
      <svg version="1.1" id="图层_1" xmlns="http://www.w3.org/2000/svg" xmlns:xlink="http://www.w3.org/1999/xlink" x="0px"
           y="0px" style="enable-background:new 0 0 283.465 283.465;" xml:space="preserve"
           viewBox="31.37109375 11.828125 220.26953125 260.53125" width="159.21812877816" height="159.21812877816"
           preserveAspectRatio="none" data-parent="shape_brs4A7rc97">
<g>
	<g>
		<path style="" d="M106.112,223.448l-28.08-18.072c0,0,23.616-16.848,18.36-30.384
			c-22.104-57.168-130.104,46.656,5.184,56.52L106.112,223.448z" fill="#FFA725"></path>
    <path style="" d="M103.52,221.792l-18.648-12.024l-1.008,1.44c-0.72,1.008-7.848,10.872-11.52,15.984
			c7.2,1.728,15.624,3.168,25.344,4.032C102.872,228.416,102.944,223.88,103.52,221.792z M80.408,206.888l-2.376-1.512
			c0,0,23.616-16.848,18.36-30.384c-2.808-7.2-6.912-11.808-11.736-14.4l0.288,26.568c0,0-3.168-10.008-15.552-10.8
			c-12.456-0.864-19.656,13.752-13.536,22.536C60.752,206.024,74.936,206.888,80.408,206.888z" fill="#F5641D"></path>
    <path style="" d="M70.688,158.072c-31.248,3.24-66.528,56.664,9.576,70.776c5.04-3.816,7.416-6.624,7.416-6.624
			c-0.576-1.152-52.56-4.896-42.336-35.568c4.392-13.392,21.384-24.192,25.056-25.344C75.872,159.728,72.128,159.584,70.688,158.072
			z" fill="#FEFEFE"></path>
    <path style="" d="M72.344,227.192c2.52,0.576,5.112,1.152,7.92,1.656c5.04-3.816,7.416-6.624,7.416-6.624
			c-0.144-0.288-4.392-0.864-10.224-2.16L72.344,227.192z" fill="#DCDDDD"></path>
    <path style="" d="M101.864,224.816l-25.848-16.56c-1.44-0.936-1.656-2.952-0.576-4.536
			c0.216-0.36,0.576-0.648,0.936-0.936l0,0c0-0.072,21.24-15.192,16.92-26.28c-4.68-12.168-13.608-16.2-22.896-15.192
			c-9.432,1.08-19.224,7.2-25.632,15.264c-6.192,7.92-9.072,17.712-4.896,26.496c5.544,11.736,22.968,21.96,60.12,24.984
			L101.864,224.816z M83.576,204.872l24.552,15.768l0,0c1.296,0.792,1.656,2.592,0.792,4.104l-4.464,7.992
			c-0.648,1.296-2.088,2.16-3.528,2.088c-41.112-3.024-60.552-14.76-66.96-28.296c-5.4-11.304-1.872-23.688,5.904-33.552
			c7.632-9.648,19.296-16.92,30.6-18.144c11.88-1.368,23.184,3.6,28.944,18.648C104.096,185.504,90.632,198.896,83.576,204.872z"
          fill="#2E150E"></path>
    <path style="" d="M76.952,185.576c0.936,1.368,0.432,3.456-1.08,4.608c-1.584,1.152-3.6,0.936-4.536-0.504
			c-0.072-0.144-0.072-0.072-0.072-0.144c-0.792-1.152-2.016-1.8-3.312-1.944c-1.224-0.144-2.592,0.216-3.744,1.08l0,0
			c-0.144,0.072-0.072,0-0.144,0.072l-0.144,0.144c-1.152,0.936-1.944,2.304-2.16,3.672c-0.36,1.512-0.072,3.096,0.792,4.392
			l0.216,0.36c2.16,2.952,5.256,4.68,8.64,5.04c3.312,0.36,6.912-0.576,10.008-2.88l0.36-0.288c3.744-2.952,7.632-8.928,9.72-14.976
			c1.728-4.896,2.232-9.576,0.432-12.312c-0.936-1.44-0.504-3.528,1.08-4.608c1.512-1.152,3.528-0.936,4.464,0.504
			c2.952,4.392,2.52,11.16,0.144,17.784c-2.52,7.344-7.488,14.832-12.312,18.648c-0.216,0.216-0.432,0.36-0.504,0.36
			c-4.608,3.456-10.008,4.896-14.904,4.32c-4.968-0.576-9.504-3.024-12.528-7.272c-0.216-0.288-0.36-0.504-0.432-0.576
			c-1.728-2.592-2.232-5.832-1.584-8.928c0.576-3.096,2.304-6.048,4.896-8.136c0.072-0.072,0.144-0.144,0.216-0.216l0.288-0.216l0,0
			l0,0c2.736-2.016,5.832-2.808,8.712-2.52c2.88,0.36,5.472,1.728,7.272,4.176L76.952,185.576z" fill="#2E150E"></path>
	</g>
  <g>
		<g>
			<path style="" d="M112.16,191.48c0,0-10.8,0.864-18.864,15.264c-7.992,14.4-9.72,22.464-9.72,22.464
				s-13.968-6.84-19.44-1.296c-5.544,5.472-4.248,14.616,1.44,20.736s33.264,17.784,38.736,16.272c5.544-1.44,15.912-18,15.912-18
				L112.16,191.48z" fill="#FFA016"></path>
      <path style="" d="M61.688,242.528c0.864,2.16,2.16,4.248,3.888,6.12c5.688,6.12,33.264,17.784,38.736,16.272
				c1.584-0.432,3.6-2.088,5.688-4.248l-8.28-47.736l-6.696-5.184c0,0,0-0.072-0.288,5.256c-0.216,5.4,5.4,30.96,5.4,30.96
				s-1.512-2.16-6.048-5.184c-4.536-3.096-9.216-3.816-9.216-3.816s7.344,7.704,10.512,10.152c3.24,2.52,5.184,6.912,5.184,6.912
				s0,4.536-6.696,3.024c-6.696-1.44-29.448-15.696-30.6-15.408C63.056,239.648,62.48,240.8,61.688,242.528z"
            fill="#F5641D"></path>
      <path style="" d="M83.576,229.208c0,0-13.968-6.84-19.44-1.296c-5.544,5.472-4.248,14.616,1.44,20.736
				s33.264,17.784,38.736,16.272c5.544-1.44,15.912-18,15.912-18l-0.072-0.144l-12.96-0.504L83.576,229.208z"
            fill="#FFFFFF"></path>
      <path style="" d="M61.688,242.528c0.864,2.16,2.16,4.248,3.888,6.12c5.688,6.12,33.264,17.784,38.736,16.272
				c1.584-0.432,3.6-2.088,5.688-4.248l-2.52-14.4h-0.288l-7.776-5.616c0.432,2.016,0.72,3.312,0.72,3.312s-1.512-2.16-6.048-5.184
				c-4.536-3.096-9.216-3.816-9.216-3.816s7.344,7.704,10.512,10.152c3.24,2.52,5.184,6.912,5.184,6.912s0,4.536-6.696,3.024
				c-6.696-1.44-29.448-15.696-30.6-15.408C63.056,239.648,62.48,240.8,61.688,242.528z" fill="#DCDDDD"></path>
      <path style="" d="M192.224,190.256c0,0,10.8,0.864,18.792,15.264c8.064,14.4,9.792,22.464,9.792,22.464
				s13.968-6.768,19.44-1.296c5.544,5.472,4.248,14.616-1.44,20.736c-5.76,6.12-33.264,17.784-38.736,16.272
				c-5.544-1.44-15.912-17.928-15.912-17.928L192.224,190.256z" fill="#FFA016"></path>
      <path style="" d="M210.368,204.296c0.216,0.432,0.432,0.792,0.648,1.224c1.584,2.88,2.952,5.472,4.104,7.776
				c-0.864,4.968-1.8,10.008-2.52,11.952c-1.584,4.32-2.448,8.424-2.448,8.424l7.344-4.32l-9.072,11.016
				c0,0-4.392,10.656-3.024,13.32c1.368,2.664,23.112-8.064,29.088-15.12c6.048-7.128,3.24-9.36,3.24-9.36s1.656-0.792,3.744-1.08
				c4.032,5.544,2.52,13.68-2.664,19.296c-5.76,6.12-33.264,17.784-38.736,16.272c-1.656-0.432-3.744-2.16-5.832-4.392
				L210.368,204.296z" fill="#F5641D"></path>
      <path style="" d="M220.016,225.176c0.576,1.8,0.792,2.808,0.792,2.808s13.968-6.768,19.44-1.296
				c5.544,5.472,4.248,14.616-1.44,20.736c-5.76,6.12-33.264,17.784-38.736,16.272c-3.888-1.008-10.08-9.36-13.464-14.256
				l9.072,0.288C195.68,249.728,217.064,233.096,220.016,225.176z" fill="#FFFFFF"></path>
      <path style="" d="M241.472,228.128c4.032,5.544,2.52,13.68-2.664,19.296c-5.76,6.12-33.264,17.784-38.736,16.272
				c-1.656-0.432-3.744-2.16-5.832-4.392l3.24-11.016c3.816-3.024,12.744-10.44,18.216-16.776l-7.272,8.856
				c0,0-4.392,10.656-3.024,13.32c1.368,2.664,23.112-8.064,29.088-15.12c6.048-7.128,3.24-9.36,3.24-9.36
				S239.384,228.416,241.472,228.128z" fill="#DCDDDD"></path>
      <path style="" d="M109.208,195.872c-3.24,1.368-8.352,4.608-12.816,12.6c-7.776,13.896-9.36,21.456-9.36,21.456
				l-0.864,3.96c10.08,6.984,17.712,20.304,17.712,20.304s-3.312-6.912-18.72-16.128c-3.744-2.232-21.744-10.944-21.024-0.576
				c0.216,3.024,1.656,6.192,4.032,8.784c2.52,2.664,10.368,6.84,18.288,10.152c7.632,3.24,14.976,5.616,16.92,5.112
				c3.528-0.936,10.872-11.88,13.176-15.336L109.208,195.872z M90.272,205.016c8.928-15.984,21.528-16.992,21.6-16.992l3.312-0.288
				l0.432,3.24l8.064,55.512l-0.504,2.376c-0.072,0-11.088,17.64-17.928,19.512c-3.528,0.936-12.6-1.728-21.456-5.472
				c-8.712-3.6-17.568-8.424-20.808-11.88c-3.456-3.744-5.544-8.424-5.904-13.032c-0.288-4.608,1.08-9.144,4.536-12.6
				c5.04-5.04,14.472-2.808,19.656-0.936C82.64,220.568,85.232,213.944,90.272,205.016z" fill="#2E150E"></path>
      <path style="" d="M195.104,194.648c3.24,1.368,8.424,4.608,12.888,12.6c7.776,13.896,9.36,21.456,9.36,21.456
				l0.144,0.648C207.488,236.336,200,249.44,200,249.44s3.312-6.912,18.72-16.128c7.416-4.392,12.672-5.472,16.2-5.328
				c1.152,0.144,2.16,0.504,2.808,1.224c1.944,1.872,2.664,4.392,2.52,7.056c-0.216,3.024-1.656,6.192-4.032,8.784
				c-2.52,2.736-10.44,6.84-18.36,10.152c-7.632,3.24-14.904,5.616-16.92,5.112c-3.456-0.936-10.8-11.88-13.104-15.336
				L195.104,194.648z M214.112,203.792c-8.928-15.984-21.528-16.992-21.6-16.992l-3.312-0.288l-0.504,3.24l-7.992,55.512
				l0.504,2.376c0,0,11.088,17.64,17.928,19.512c3.528,0.936,12.6-1.728,21.456-5.472c8.712-3.6,17.568-8.424,20.736-11.88
				c3.528-3.744,5.616-8.424,5.904-13.032c0.36-4.608-1.008-9.144-4.464-12.6c-5.112-5.04-14.472-2.808-19.728-0.936
				C221.744,219.344,219.08,212.72,214.112,203.792z" fill="#2E150E"></path>
      <path style="" d="M83.792,66.344c-4.752,4.464,18.36,50.616,18.432,50.76l0.288,1.44l-0.216,4.464
				c-11.088,70.56-8.856,71.424,12.168,140.76c0,0,6.552,3.312,15.48,3.024c8.856-0.36,12.456-4.392,12.456-4.392
				s3.168-7.632,5.184-14.616c2.016-6.984,2.592-18.144,2.592-18.144l2.16,0.072c0,0,2.448,20.664,4.176,26.136
				c1.656,5.544,1.656,5.544,1.656,5.544s2.448,2.736,13.176,2.952c10.656,0.216,15.768-1.944,15.768-1.944
				C218.936,207.896,202.16,147.632,200,118.544l0.288-1.44c0.072-0.144,23.184-46.296,18.432-50.76
				c-4.608-4.32-32.76,15.984-32.904,16.056l-1.44,1.08l-1.656-0.864c-4.752-2.736-18-4.032-31.464-4.032
				c-13.392,0-26.712,1.296-31.464,4.032l-1.584,0.864l-1.512-1.08C116.624,82.328,88.472,62.024,83.792,66.344z"
            fill="#FFA725"></path>
      <path style="" d="M135.776,265.928c4.68-1.296,6.624-3.528,6.624-3.528s3.168-7.632,5.184-14.616
				c2.016-6.984,2.592-18.144,2.592-18.144l2.16,0.072c0,0,2.448,20.664,4.176,26.136c1.656,5.544,1.656,5.544,1.656,5.544
				s1.224,1.368,5.76,2.232l-3.888-20.952c0,0,7.2-0.936,16.992-7.2c9.864-6.264,10.872-15.552,10.872-15.552
				s-16.272,8.784-42.408,8.568c-26.136-0.216-29.16-8.28-29.16-8.28s-0.432,8.928,8.208,15.48
				c8.712,6.552,16.632,8.064,16.632,8.064L135.776,265.928z" fill="#F5641D"></path>
      <path style="" d="M110.72,249.512c1.152,4.464,2.376,9.144,3.744,14.256c0,0,6.552,3.312,15.48,3.024
				c8.856-0.36,12.456-4.392,12.456-4.392s1.44-3.456,3.024-7.848c-1.44,0-2.952,0-4.464,0
				C123.392,254.408,114.824,251.744,110.72,249.512z M156.08,254.192c0.144,0.648,0.288,1.224,0.432,1.656
				c1.656,5.544,1.656,5.544,1.656,5.544s2.448,2.736,13.176,2.952c10.656,0.216,15.768-1.944,15.768-1.944
				c3.312-4.032,6.192-8.208,8.568-12.672C190.208,251.024,174.728,253.4,156.08,254.192z" fill="#FFFFFF"></path>
      <path style="" d="M135.776,265.928c4.68-1.296,6.624-3.528,6.624-3.528s1.44-3.456,3.024-7.848
				c-1.44,0-2.952,0-4.464,0c-0.864,0-1.656-0.072-2.448-0.072L135.776,265.928z M162.128,253.904l1.8,9.72
				c-4.536-0.864-5.76-2.232-5.76-2.232s0,0-1.656-5.544c-0.144-0.432-0.288-1.008-0.432-1.656
				C158.096,254.12,160.112,254.048,162.128,253.904z" fill="#DCDDDD"></path>
      <path style="" d="M174.944,192.416c1.08-10.512,20.304-40.608,15.336-55.512
				c-4.968-14.688-23.904-16.488-29.088-31.248c-3.096-8.928-1.296-19.656,0.72-26.784c-3.456-0.216-7.056-0.288-10.656-0.288
				c-4.176,0-8.424,0.144-12.384,0.36c1.368,2.736,2.376,6.264,2.376,10.584c-0.072,12.168,1.224,15.408-7.056,23.112
				c-50.328,46.728-4.752,51.336-6.192,78.192c-6.48,15.552-14.04,24.408-4.68,39.888c0,0,13.104,5.112,30.456,4.824
				c17.352-0.36,23.544-5.544,23.544-5.544C186.608,207.176,177.464,209.912,174.944,192.416z" fill="#FEFEFE"></path>
      <path style="" d="M120.008,223.664c0.72,2.232,1.8,4.536,3.312,7.056c0,0,13.104,5.112,30.456,4.824
				c17.352-0.36,23.544-5.544,23.544-5.544c1.08-2.52,1.872-4.752,2.448-6.696c-7.272,2.448-19.08,5.328-34.272,5.184
				C131.168,228.416,123.752,225.896,120.008,223.664z" fill="#CCCCCC"></path>
      <path style="" d="M120.008,227.984c0.648,0.288,10.008,10.872,29.952,10.656
				c19.872-0.216,31.968-12.24,31.968-12.24s-18.792,7.776-34.848,6.984C131.024,232.52,120.008,227.984,120.008,227.984z"
            fill="#2E150E"></path>
      <path style="" d="M129.944,266.792c-8.928,0.288-15.48-3.024-15.48-3.024
				c-20.952-68.616-23.616-69.192-12.168-140.76c0.072-1.224-0.432,0.648-0.504,0.936l-3.384-3.6l1.944-7.056
				c-3.96-8.136-13.032-27.504-16.128-38.736c-3.024-2.304-5.184-3.744-5.4-3.816l0.072-1.944l0.072-2.664l0,0h0.144
				c0.432,0,1.944,0.864,4.032,2.232c0.072-0.936,0.288-1.656,0.648-2.016c4.68-4.32,32.832,15.984,32.904,16.056l1.512,1.08
				l1.584-0.864c3.24-1.872,10.512-3.096,19.08-3.672c3.96-0.216,8.208-0.36,12.384-0.36c3.6,0,7.2,0.072,10.656,0.288
				c9.288,0.504,17.352,1.728,20.808,3.744l1.656,0.864l1.44-1.08c0.072-0.072,21.672-15.624,30.168-16.632
				c1.224-0.144,2.16,0.072,2.736,0.576c0.576,0.576,0.792,1.728,0.576,3.456c1.944-1.296,3.312-2.016,3.816-2.088h0.072l0,0
				l0.072,2.664l0.144,1.944c-0.288,0.072-2.448,1.584-5.544,3.888c-3.672,11.952-12.744,31.032-16.2,38.16l2.088,7.56l-3.24,3.528
				c0.288,17.208,5.688,41.472,5.688,66.528c0,23.904-5.04,48.528-19.08,70.416c0,0-5.112,2.16-15.768,1.944
				c-10.728-0.216-13.176-2.952-13.176-2.952l-1.656-5.544c-1.008-3.096-2.16-11.088-3.024-17.424
				c-1.152,0.144-2.304,0.216-3.528,0.216c-0.216,0-0.432,0-0.648,0c-0.36,3.096-0.936,6.48-1.728,9.144
				c-2.016,6.984-5.184,14.616-5.184,14.616S138.8,266.432,129.944,266.792z M151.256,72.968c-8.064,0-24.408,0.432-32.616,3.96
				c-4.608-3.312-9.504-6.48-14.4-9.36c-3.672-2.16-7.632-4.32-11.592-5.832c-4.032-1.584-9.144-2.808-12.672,0.504
				c-3.96,3.744-2.088,10.656-0.72,15.192c1.728,5.832,4.104,11.736,6.48,17.352c3.456,8.136,7.272,16.272,11.16,24.192l0,0
				l-0.216,3.6c-12.96,71.568-8.712,76.176,12.384,142.632l0.648,2.448l2.304,1.152c5.112,2.592,12.456,3.744,18.144,3.528
				c5.4-0.216,12.672-1.944,16.416-6.192l0.648-0.72l0.36-0.864c1.152-2.736,2.232-5.544,3.168-8.352
				c0.144,0.432,0.288,0.864,0.432,1.296l1.656,5.544l0.36,1.08l0.792,0.936c3.528,4.032,12.384,4.752,17.208,4.824
				c5.112,0.144,13.176-0.288,18-2.304l1.296-0.504l0.864-1.08c35.64-51.84,18.504-112.824,14.256-147.024l0,0
				c3.96-7.92,7.704-16.056,11.16-24.192c2.376-5.616,4.824-11.52,6.552-17.352c1.368-4.536,3.24-11.448-0.792-15.192
				c-3.528-3.312-8.64-2.088-12.672-0.504c-3.96,1.512-7.92,3.672-11.52,5.832c-4.896,2.88-9.792,6.048-14.472,9.36
				C175.664,73.4,159.32,72.968,151.256,72.968z" fill="#2E150E"></path>
		</g>
    <g>
			<path style="" d="M206.768,162.68c5.904-19.656,25.344-21.024,42.12-15.264
				C242.48,161.456,220.52,166.424,206.768,162.68z" fill="#48A5C4"></path>
      <path style="" d="M204.536,160.592c-0.144,0.36-0.288,0.72-0.36,1.152c-0.072,0.072-0.072,0.144-0.072,0.144
				c-0.432,1.512,0.432,3.024,1.944,3.456c7.848,2.16,18.216,1.584,27.216-1.656c7.848-2.808,14.76-7.776,18.072-14.976
				c0.072-0.072,0.144-0.216,0.144-0.432c0.504-1.44-0.216-3.024-1.728-3.456c-0.72-0.288-1.512-0.504-2.232-0.792
				c-8.424-2.52-17.352-3.24-25.056-1.008C214.472,145.328,207.848,150.728,204.536,160.592z M210.44,160.592
				c2.808-6.768,7.704-10.584,13.536-12.24c6.264-1.872,13.68-1.296,20.808,0.72c-3.024,4.32-7.92,7.416-13.392,9.432
				C224.552,160.952,216.848,161.672,210.44,160.592z" fill="#2E150E"></path>
      <path style="" d="M206.48,157.568c19.44-6.48,31.752,8.712,36.72,25.704
				C228.08,186.08,211.376,170.96,206.48,157.568z" fill="#48A5C4"></path>
      <path style="" d="M206.912,154.544c-0.36,0.144-0.72,0.216-1.152,0.36c-0.072,0-0.144,0.072-0.216,0.072
				c-1.44,0.504-2.16,2.088-1.656,3.528c2.808,7.704,9.216,15.912,16.992,21.384c6.912,4.824,15.048,7.56,22.824,6.12l0,0
				c0.072-0.072,0.216-0.072,0.288-0.072c1.44-0.432,2.304-2.016,1.872-3.456c-0.216-0.72-0.432-1.512-0.72-2.304
				c-2.808-8.352-7.272-16.056-13.536-21.096C225.128,153.896,216.848,151.664,206.912,154.544z M210.296,159.44
				c7.128-1.584,13.104,0.216,17.856,3.96c5.112,4.104,8.856,10.44,11.376,17.424c-5.256,0.072-10.656-2.16-15.48-5.472
				C218.072,171.176,213.104,165.272,210.296,159.44z" fill="#2E150E"></path>
      <path style="" d="M222.896,148.28l-70.344-1.224l-70.416,1.224C144.488,240.08,160.544,240.08,222.896,148.28z"
            fill="#7ECCE6"></path>
      <path style="" d="M90.776,160.808L90.776,160.808c0.072,0.072,25.2,19.008,50.4,22.968
				c25.2,4.032,34.488-2.016,34.488-2.016s-12.168,10.944-15.984,12.168c-3.744,1.296-11.016-1.368-11.016-1.368
				s6.768,5.832,10.008,5.616c3.168-0.216,5.328-0.936,10.512-4.392c5.184-3.456,12.528-11.592,12.96-11.88
				c0.432-0.216,5.76-2.88,5.76-2.88l3.312-0.648c0,0-15.48,27.72-36.288,32.688c-7.416,1.8-15.336,0.648-22.464-1.584
				c25.2,18.432,44.784,3.528,79.128-44.784l-3.96-9.864L90.776,160.808z" fill="#48A5C4"></path>
      <path style="" d="M217.784,150.944l-65.232-1.08l-65.232,1.08c28.944,42.264,47.376,63.432,65.232,63.432
				C170.336,214.376,188.768,193.208,217.784,150.944z M152.552,144.32l70.416,1.224c0.504,0,1.08,0.144,1.512,0.432
				c1.296,0.864,1.584,2.592,0.72,3.888c-31.752,46.728-51.84,70.056-72.648,70.056s-40.968-23.328-72.648-69.984
				c-0.36-0.432-0.504-1.008-0.576-1.584c0-1.584,1.224-2.808,2.736-2.808L152.552,144.32z" fill="#2E150E"></path>
      <path style="" d="M133.472,31.784H151.4h17.928c2.88,0,5.76,0.144,8.64,0.504c2.232,0.216,4.536,0.648,6.84,1.152
				c4.032-2.952,9.864-7.128,15.48-10.944c6.408-4.32,12.816-8.28,16.488-9.72c1.728-0.72,3.456-1.008,5.112-0.936
				c4.968,0.216,8.712,3.6,11.448,9l0.36-0.072l-0.216,0.36c2.304,4.752,3.888,11.088,4.824,18c1.8,13.536,1.296,29.52-0.576,39.24
				c0.936,2.304,1.584,4.608,1.944,6.912c0.504,1.872,1.008,3.816,1.368,5.832c0.864,4.392,1.296,9,1.296,13.608
				c0,36-23.904,59.184-54.432,69.264c-11.52,3.816-24.048,5.76-36.504,5.832c-12.456-0.072-24.912-2.016-36.504-5.832
				c-30.528-10.08-54.432-33.264-54.432-69.264c0-4.608,0.432-9.216,1.296-13.608c0.36-2.016,0.864-3.96,1.368-5.832
				c0.36-2.304,1.008-4.608,2.016-6.912c-1.944-9.72-2.448-25.704-0.648-39.24c0.936-6.912,2.52-13.248,4.824-18l-0.216-0.36
				l0.36,0.072c2.736-5.4,6.48-8.784,11.448-9c1.656-0.072,3.384,0.216,5.184,0.936c3.6,1.44,10.008,5.4,16.416,9.72
				c5.616,3.816,11.448,7.992,15.48,10.944c2.304-0.504,4.608-0.936,6.84-1.152C127.712,31.928,130.592,31.784,133.472,31.784z"
            fill="#2E150E"></path>
      <path style="" d="M75.296,63.032c6.768-7.632,15.336-14.616,22.464-19.44c-6.12-4.464-17.712-12.672-23.976-15.048
				c-1.08,3.384-1.872,7.272-2.448,11.52c-1.224,9.432-1.296,20.016-0.576,28.584C72.128,66.704,73.712,64.832,75.296,63.032z
				 M227.504,63.032c-6.768-7.632-15.336-14.616-22.464-19.44c6.12-4.464,17.712-12.672,23.976-15.048
				c1.08,3.384,1.872,7.272,2.448,11.52c1.224,9.432,1.296,20.016,0.576,28.584C230.672,66.704,229.088,64.832,227.504,63.032z
				 M197.192,46.832c23.112,13.68,38.16,31.104,38.16,57.888c0,4.608-0.432,9-1.224,13.104c-5.04,25.128-24.48,41.688-48.384,49.608
				c-10.872,3.6-22.608,5.4-34.344,5.472c-11.736-0.072-23.472-1.872-34.344-5.472c-23.904-7.92-43.344-24.48-48.384-49.608
				c-0.792-4.104-1.224-8.496-1.224-13.104c0-26.784,15.048-44.208,38.16-57.888l4.464-2.592l-4.104-3.168
				c-0.072,0-18.576-14.256-29.448-18.72c1.368-2.232,2.952-3.528,4.68-3.6c0.72,0,1.512,0.144,2.376,0.504
				c3.024,1.152,9,4.896,15.12,9c6.264,4.32,12.6,8.856,16.488,11.664l1.296,1.008l1.584-0.432c2.448-0.576,4.968-1.008,7.632-1.368
				c2.52-0.288,5.112-0.432,7.776-0.432H151.4h17.928c2.664,0,5.256,0.144,7.776,0.432c2.664,0.36,5.184,0.792,7.632,1.368
				l1.584,0.432l1.296-1.008c3.888-2.808,10.224-7.344,16.488-11.664c6.12-4.104,12.096-7.848,15.12-9
				c0.864-0.36,1.656-0.504,2.376-0.504c1.728,0.072,3.312,1.368,4.68,3.6c-10.872,4.464-29.376,18.72-29.448,18.72l-4.104,3.168
				L197.192,46.832z" fill="#FFA725"></path>
      <path style="" d="M132.968,171.32c-0.36,0-0.648-0.072-1.008-0.144l0,0l-0.36-0.072l0,0l-0.36-0.072l0,0
				l-0.36-0.072h-0.072l-0.216-0.072h-0.072l-0.36-0.072l0,0l-0.36-0.072h-0.072l-0.216-0.072h-0.072l-0.36-0.072l0,0l-0.36-0.072
				h-0.072h-0.216l-0.288-0.072L128,170.384l0,0l-0.36-0.072h-0.072l-0.288-0.072h-0.072l-0.288-0.072l-0.36-0.072l0,0l-0.288-0.072
				l-0.216-0.072l-0.216-0.072l-0.432-0.072h-0.072l-0.504-0.144l0,0l-0.504-0.144h-0.072l-0.36-0.072l-0.072-0.072h-0.144
				l-0.36-0.072l0,0l-0.216-0.072l-0.216-0.072l-0.216-0.072l0,0l-0.36-0.072h-0.072l-0.072-0.072l-0.36-0.072l-0.144-0.072h-0.072
				l-0.36-0.072l0,0l-0.216-0.072l-0.216-0.072l-0.216-0.072h-0.072l-0.288-0.072l-0.072-0.072l-0.432-0.072l-0.144-0.072
				l-0.432-0.144l0,0h-0.072l-0.432-0.144h-0.072l-0.432-0.144l0,0l-0.072-0.072l-0.36-0.072l-0.144-0.072l-0.504-0.144
				c-23.904-7.92-43.344-24.48-48.384-49.608c-0.792-4.104-1.224-8.496-1.224-13.104c0-0.432,0-0.792,0-1.224
				c0-0.144,0-0.288,0-0.432c0-0.288,0-0.504,0-0.792c0-0.144,0-0.36,0.072-0.504c0-0.216,0-0.504,0-0.72c0-0.144,0-0.36,0-0.504
				c0.072-0.216,0.072-0.432,0.072-0.648c0-0.216,0-0.36,0.072-0.576c0-0.216,0-0.432,0-0.648c0.072-0.144,0.072-0.36,0.072-0.576
				c0-0.144,0.072-0.36,0.072-0.576c0-0.144,0.072-0.36,0.072-0.576c0-0.144,0.072-0.36,0.072-0.576c0-0.144,0.072-0.36,0.072-0.504
				c0-0.216,0.072-0.432,0.072-0.648c0-0.144,0.072-0.36,0.072-0.504c0.072-0.216,0.072-0.432,0.144-0.576
				c0-0.216,0-0.36,0.072-0.576c0-0.144,0.072-0.36,0.072-0.576c0.072-0.144,0.072-0.36,0.144-0.504c0-0.216,0.072-0.36,0.072-0.576
				c0.072-0.216,0.072-0.36,0.144-0.576c0-0.144,0.072-0.36,0.144-0.504c0-0.216,0.072-0.36,0.072-0.576
				c0.072-0.144,0.072-0.36,0.144-0.504c0.072-0.216,0.072-0.36,0.144-0.576c0.072-0.144,0.072-0.36,0.144-0.504
				s0.072-0.36,0.144-0.504c0.072-0.216,0.072-0.36,0.144-0.576c0.072-0.144,0.072-0.36,0.144-0.504s0.144-0.36,0.144-0.504
				c0.072-0.216,0.144-0.36,0.216-0.504c0-0.216,0.072-0.36,0.144-0.576c0.072-0.144,0.144-0.288,0.144-0.504
				c0.072-0.144,0.144-0.288,0.216-0.504c0.072-0.144,0.144-0.288,0.144-0.504c0.072-0.144,0.144-0.36,0.216-0.504
				c0.072-0.144,0.144-0.36,0.216-0.504c0.072-0.144,0.144-0.288,0.144-0.504c0.072-0.144,0.144-0.288,0.216-0.504
				c0.072-0.144,0.144-0.288,0.216-0.432c0.072-0.216,0.144-0.36,0.216-0.504c0.072-0.216,0.144-0.36,0.216-0.504
				c0.072-0.144,0.144-0.36,0.216-0.504s0.144-0.288,0.216-0.432c0.072-0.216,0.144-0.36,0.216-0.504
				c0.072-0.144,0.144-0.288,0.216-0.504c0.144-0.144,0.216-0.288,0.288-0.504c0.072-0.144,0.144-0.288,0.216-0.36
				c0.072-0.216,0.216-0.36,0.288-0.576c0.072-0.144,0.144-0.288,0.216-0.36c0.072-0.216,0.144-0.36,0.288-0.576
				c0.072-0.144,0.144-0.288,0.216-0.36c0.072-0.216,0.216-0.36,0.288-0.504s0.144-0.288,0.216-0.432
				c0.144-0.144,0.216-0.36,0.36-0.504c0.072-0.144,0.144-0.288,0.216-0.432c0.072-0.144,0.216-0.288,0.288-0.504
				c0.072-0.072,0.144-0.216,0.216-0.36c0.144-0.144,0.288-0.36,0.36-0.504c0.072-0.072,0.144-0.216,0.216-0.288
				c0.144-0.216,0.288-0.432,0.432-0.576l0.072-0.216c0.216-0.216,0.36-0.432,0.504-0.648l0.072-0.144
				c0.576-0.792,1.224-1.656,1.8-2.448l0,0c0.216-0.144,0.36-0.36,0.504-0.576c0.072-0.072,0.144-0.144,0.216-0.216
				c0.144-0.216,0.288-0.432,0.504-0.648c0.072-0.072,0.072-0.144,0.144-0.216c0.144-0.144,0.36-0.36,0.504-0.576
				c0.072-0.072,0.144-0.144,0.216-0.216c0.144-0.216,0.288-0.36,0.504-0.576c0.072-0.072,0.144-0.144,0.216-0.216
				c0.144-0.216,0.288-0.36,0.504-0.576c0.072-0.072,0.144-0.144,0.216-0.288c0.144-0.144,0.36-0.288,0.504-0.504
				c0.072-0.072,0.144-0.144,0.216-0.216c0.216-0.216,0.36-0.36,0.504-0.576c0.144-0.072,0.216-0.144,0.288-0.216
				c0.144-0.216,0.36-0.36,0.504-0.504c0.072-0.144,0.216-0.216,0.288-0.288c0.144-0.216,0.36-0.36,0.504-0.504l0.288-0.288
				c0.144-0.144,0.36-0.288,0.504-0.504l0.288-0.216c0.144-0.216,0.36-0.36,0.504-0.504l0.288-0.288
				c0.216-0.144,0.36-0.288,0.576-0.504l0.288-0.216c0.144-0.144,0.36-0.36,0.576-0.504l0.288-0.216
				c0.144-0.216,0.36-0.36,0.576-0.504l0.288-0.288c0.144-0.144,0.36-0.288,0.504-0.432l0.36-0.288
				c0.144-0.144,0.36-0.288,0.576-0.432l0.288-0.288c0.216-0.144,0.432-0.288,0.576-0.432l0.288-0.216
				c0.216-0.144,0.432-0.36,0.648-0.504l0.288-0.216c0.216-0.144,0.432-0.36,0.648-0.504l0.288-0.144
				c0.216-0.216,0.432-0.36,0.648-0.504l0.288-0.216c0.216-0.144,0.432-0.36,0.648-0.504l0.288-0.144
				c0.216-0.216,0.432-0.36,0.72-0.504l0.216-0.216c0.216-0.144,0.504-0.288,0.72-0.504l0.216-0.144
				c0.288-0.144,0.504-0.36,0.792-0.504l0.216-0.144c0.288-0.144,0.504-0.36,0.792-0.504l0.216-0.144
				c0.216-0.144,0.504-0.36,0.792-0.504l0.144-0.144c0.648-0.36,1.296-0.792,1.944-1.152c0.648-0.432,1.296-0.792,1.944-1.224
				l3.6-2.088c4.824-2.448,10.512-4.32,16.632-5.616c2.448-0.288,5.04-0.432,7.632-0.432H151.4h17.928
				c2.664,0,5.256,0.144,7.776,0.432c2.664,0.36,5.184,0.792,7.632,1.368l1.584,0.432c-33.264-1.872-62.352-5.544-89.568,16.992
				C82.28,70.016,73.424,84.992,73.424,105.512c0,4.608,0.432,9,1.224,13.104c5.04,25.128,24.552,41.688,48.456,49.608
				c5.4,1.8,11.088,3.168,16.848,4.104l0,0l-0.216-0.072h-0.216h-0.288v-0.072h-0.36l0,0h-0.216l-0.216-0.072h-0.288l-0.36-0.072
				l0,0h-0.288l-0.144-0.072h-0.288l0,0l-0.36-0.072h-0.072h-0.144l-0.36-0.072h-0.072h-0.144l-0.36-0.072l-0.288-0.072h-0.144
				h-0.288l0,0l-0.36-0.072l-0.288-0.072h-0.144l-0.216-0.072h-0.072l-0.36-0.072h-0.216L132.968,171.32z"
            fill="#FCD9A4"></path>
      <path style="" d="M75.296,63.032c6.768-7.632,15.336-14.616,22.464-19.44c-6.12-4.464-17.712-12.672-23.976-15.048
				c-1.08,3.384-1.872,7.272-2.448,11.52c-1.224,9.432-1.296,20.016-0.576,28.584C72.128,66.704,73.712,64.832,75.296,63.032z
				 M192.728,44.24c0,0,37.728,31.176,23.688,81.648c-6.408,22.968-23.256,36.36-39.744,44.064c3.096-0.72,6.12-1.512,9.072-2.52
				c23.904-7.92,43.344-24.48,48.384-49.608c0.792-4.104,1.224-8.496,1.224-13.104c0-26.784-15.048-44.208-38.16-57.888
				L192.728,44.24z M205.04,43.592c6.12-4.464,17.712-12.672,23.976-15.048c1.08,3.384,1.872,7.272,2.448,11.52
				c1.224,9.432,1.296,20.016,0.576,28.584C225.056,59.072,214.76,50.144,205.04,43.592z" fill="#F5641D"></path>

      <linearGradient id="SVGID_1_" gradientUnits="userSpaceOnUse" x1="15549.7422" y1="-15837.0195" x2="16529.332"
                      y2="-15905.7002" gradientTransform="matrix(0.072 0 0 -0.072 -1027.296 -1006.704)">
				<stop offset="0" style="" stop-color="#EEEEEF"></stop>
        <stop offset="1" style="" stop-color="#FEFEFE"></stop>
			</linearGradient>
      <path style="" d="M70.544,124.952c5.4-3.816,11.736-6.552,18.648-7.92c21.096-4.032,24.552,10.44,37.8-3.816
				c6.264-6.696,14.904-10.872,24.408-10.872c9.504,0,18.144,4.176,24.408,10.872c13.248,14.256,16.704-0.216,37.8,3.816
				c6.912,1.368,13.248,4.104,18.648,7.92c-6.984,21.096-24.984,35.352-46.512,42.48c-10.872,3.6-22.608,5.4-34.344,5.472
				c-11.736-0.072-23.472-1.872-34.344-5.472C95.528,160.304,77.528,146.048,70.544,124.952z"
            fill="url(#SVGID_1_)"></path>
      <path style="" d="M70.544,124.952c1.584-1.152,3.168-2.16,4.896-3.024c5.976,23.256,24.768,38.736,47.664,46.296
				c5.4,1.8,11.088,3.168,16.848,4.104l0,0l-0.216-0.072h-0.216h-0.288v-0.072h-0.36l0,0h-0.216l-0.216-0.072h-0.288l-0.36-0.072
				l0,0h-0.288l-0.144-0.072h-0.288l0,0l-0.36-0.072h-0.072h-0.144l-0.36-0.072h-0.072h-0.144l-0.36-0.072l-0.288-0.072h-0.144
				h-0.288l0,0l-0.36-0.072l-0.288-0.072h-0.144l-0.216-0.072h-0.072l-0.36-0.072h-0.216l-0.216-0.072
				c-0.36,0-0.648-0.072-1.008-0.144l0,0l-0.36-0.072l0,0l-0.36-0.072l0,0l-0.36-0.072h-0.072l-0.216-0.072h-0.072l-0.36-0.072l0,0
				l-0.36-0.072h-0.072l-0.216-0.072h-0.072l-0.36-0.072l0,0l-0.36-0.072h-0.072h-0.216l-0.288-0.072L128,170.384l0,0l-0.36-0.072
				h-0.072l-0.288-0.072h-0.072l-0.288-0.072l-0.36-0.072l0,0l-0.288-0.072l-0.216-0.072l-0.216-0.072l-0.432-0.072h-0.072
				l-0.504-0.144l0,0l-0.504-0.144h-0.072l-0.36-0.072l-0.072-0.072h-0.144l-0.36-0.072l0,0l-0.216-0.072l-0.216-0.072l-0.216-0.072
				l0,0l-0.36-0.072h-0.072l-0.072-0.072l-0.36-0.072l-0.144-0.072h-0.072l-0.36-0.072l0,0l-0.216-0.072l-0.216-0.072l-0.216-0.072
				h-0.072l-0.288-0.072l-0.072-0.072l-0.432-0.072l-0.144-0.072l-0.432-0.144l0,0h-0.072l-0.432-0.144h-0.072l-0.432-0.144l0,0
				l-0.072-0.072l-0.36-0.072l-0.144-0.072l-0.504-0.144c-0.36-0.144-0.72-0.216-1.008-0.36L115.76,167
				c-0.288-0.144-0.576-0.216-0.792-0.288l-0.432-0.144c-0.216-0.072-0.432-0.144-0.648-0.216l-0.432-0.216
				c-0.216-0.072-0.36-0.144-0.576-0.216l-0.504-0.144c-0.144-0.072-0.36-0.144-0.576-0.288l-0.432-0.144
				c-0.216-0.072-0.36-0.144-0.576-0.216c-0.144-0.072-0.288-0.144-0.504-0.216c-0.144-0.072-0.36-0.144-0.504-0.216
				c-0.216-0.072-0.36-0.144-0.504-0.216c-0.144-0.072-0.36-0.144-0.576-0.288c-0.144,0-0.288-0.072-0.432-0.144
				c-0.216-0.144-0.432-0.216-0.648-0.36l-0.36-0.144c-0.288-0.144-0.648-0.288-0.936-0.432c-0.144-0.072-0.288-0.144-0.432-0.216
				c-0.216-0.072-0.432-0.144-0.576-0.288c-0.144-0.072-0.288-0.144-0.432-0.216c-0.216-0.072-0.36-0.144-0.576-0.288
				c-0.144-0.072-0.288-0.144-0.432-0.216c-0.216-0.072-0.36-0.144-0.576-0.288l-0.432-0.216c-0.144-0.072-0.288-0.144-0.504-0.288
				l-0.432-0.216c-0.216-0.072-0.36-0.216-0.504-0.288c-0.144-0.072-0.288-0.144-0.504-0.288c-0.144-0.072-0.288-0.144-0.432-0.216
				c-0.144-0.072-0.36-0.216-0.504-0.288c-0.144-0.072-0.288-0.216-0.432-0.288c-0.144-0.072-0.288-0.144-0.504-0.288
				c-0.144-0.072-0.288-0.144-0.432-0.288c-0.144-0.072-0.288-0.144-0.504-0.288l-0.072-0.072c-0.432-0.216-0.864-0.504-1.368-0.792
				c-0.072-0.072-0.216-0.144-0.288-0.216c-0.216-0.144-0.36-0.288-0.576-0.36c-0.072-0.072-0.216-0.216-0.288-0.288
				c-0.216-0.072-0.36-0.216-0.504-0.288c-0.144-0.144-0.288-0.216-0.432-0.288c-0.144-0.144-0.288-0.216-0.504-0.36l-0.36-0.288
				c-0.144-0.072-0.36-0.216-0.504-0.36l-0.288-0.216c-0.216-0.144-0.36-0.288-0.576-0.432c-0.072-0.072-0.216-0.144-0.288-0.216
				c-0.216-0.144-0.36-0.288-0.504-0.432l-0.36-0.216c-0.144-0.144-0.36-0.288-0.504-0.432l-0.216-0.144
				c-0.936-0.792-1.872-1.584-2.736-2.376l-0.144-0.144c-0.216-0.144-0.432-0.36-0.576-0.504l-0.216-0.216
				c-0.216-0.144-0.36-0.36-0.576-0.504l-0.144-0.216c-0.216-0.144-0.36-0.288-0.576-0.504l-0.216-0.216
				c-0.144-0.144-0.36-0.36-0.504-0.504l-0.216-0.216c-0.144-0.144-0.36-0.36-0.504-0.504l-0.216-0.216
				c-0.144-0.216-0.36-0.36-0.504-0.576l-0.072-0.072c-0.864-0.936-1.728-1.944-2.52-2.952h-0.072
				c-0.144-0.288-0.36-0.504-0.504-0.72l-0.072-0.144c-0.216-0.216-0.36-0.432-0.576-0.648l-0.072-0.144
				c-0.144-0.216-0.36-0.432-0.504-0.648l-0.144-0.216c-0.144-0.216-0.288-0.432-0.432-0.648l-0.144-0.144
				c-0.144-0.216-0.288-0.432-0.504-0.72l-0.072-0.072c-0.144-0.288-0.288-0.504-0.504-0.792l0,0
				c-0.864-1.368-1.728-2.808-2.52-4.248l-0.072-0.072c-0.072-0.288-0.216-0.504-0.36-0.792l-0.072-0.144
				c-0.144-0.216-0.288-0.504-0.432-0.792l-0.072-0.144c-0.144-0.216-0.216-0.504-0.36-0.72l-0.072-0.216
				c-0.144-0.216-0.288-0.504-0.36-0.792l-0.072-0.072c-0.144-0.288-0.216-0.576-0.36-0.864v-0.072
				C71.696,128.192,71.12,126.536,70.544,124.952L70.544,124.952z" fill="#FEFEFE"></path>
      <path style="" d="M151.112,124.592L151.112,124.592c-3.888-1.512-12.024-5.4-9.288-10.8
				c3.6-6.984,22.824-3.312,23.112,1.728c0.216,3.816-6.552,7.344-9.936,8.928l0,0l0,0l0,0l0,0l0,0v0.072l0,0l0,0l0,0l0,0l0,0l0,0
				h0.072v0.072l0,0l0,0l0,0l0,0l0,0l0,0l0,0v0.072l0,0l0,0l0,0l0,0l0,0l0,0l0,0v0.072l0,0l0,0l0,0v0.072l0,0h0.072l0,0l0,0v0.072
				l0,0l0,0l0,0l0,0l0,0l0,0l0,0l0,0v0.072l0,0l0,0l0,0l0,0l0,0l0,0v0.072l0,0l0,0l0,0l0,0l0,0l0,0v0.072l0,0l0,0l0,0l0,0l0,0v0.072
				l0,0l0,0l0,0l0,0c0,0.072,0,0.36,0,0.792c0.072,2.232,0.864,9.504,8.208,9.72c9.072,0.36,10.944-8.424,10.944-8.496
				c0.216-1.08,1.368-1.8,2.448-1.512c1.08,0.216,1.8,1.368,1.584,2.448c0,0-1.584,7.272-8.064,10.368
				c-0.504,9.288-7.992,16.704-17.136,16.704c-9.216,0-16.704-7.416-17.208-16.704c-6.48-3.096-8.064-10.368-8.064-10.368
				c-0.216-1.08,0.504-2.232,1.584-2.448c1.08-0.288,2.232,0.432,2.448,1.512c0,0.072,1.872,8.856,10.944,8.496
				c7.344-0.216,8.136-7.488,8.208-9.72c0-0.432,0-0.72,0-0.792l0,0l0,0l0,0v-0.072l0,0l0,0l0,0l0,0l0,0l0,0v-0.072l0,0l0,0l0,0l0,0
				l0,0v-0.072l0,0l0,0l0,0l0,0l0,0l0,0v-0.072l0,0l0,0l0,0l0,0l0,0l0,0l0,0v-0.072l0,0l0,0h0.072l0,0l0,0l0,0v-0.072l0,0l0,0l0,0
				l0,0l0,0l0,0v-0.072l0,0l0,0l0,0l0,0V124.592L151.112,124.592L151.112,124.592z M169.904,138.632
				c-0.072,0.072-0.216,0.072-0.288,0.144l0,0C169.76,138.704,169.832,138.704,169.904,138.632z"
            fill="#DCDDDD"></path>
      <path style="" d="M218.216,118.184c5.112,1.512,9.864,3.816,14.04,6.768c-6.984,21.096-24.984,35.352-46.512,42.48
				c-2.952,1.008-5.976,1.8-9.072,2.52c16.488-7.704,33.336-21.096,39.744-44.064C217.136,123.296,217.712,120.704,218.216,118.184z
				" fill="#DCDDDD"></path>
      <g>
				<path style="" d="M149.456,122.216L149.456,122.216c-3.888-1.512-12.096-5.4-9.288-10.8
					c3.6-6.984,22.752-3.24,23.04,1.8c0.288,3.744-6.48,7.344-9.936,8.856l0,0l0.072,0.072l0,0l0,0l0,0l0,0l0,0l0,0l0,0l0,0v0.072
					l0,0l0,0l0,0l0,0l0,0l0,0v0.072l0,0l0,0l0,0l0,0l0,0l0,0h0.072l0,0v0.072l0,0l0,0l0,0l0,0v0.072l0,0l0,0l0,0l0,0v0.072l0,0l0,0
					l0,0l0,0l0,0l0,0v0.072l0,0l0,0l0,0l0,0l0,0l0,0v0.072l0,0l0,0l0,0l0,0l0,0h0.072l0,0v0.072l0,0l0,0l0,0l0,0v0.072l0,0l0,0l0,0
					l0,0l0,0l0,0l0,0v0.072c0,0,0,0.288,0,0.792c0.072,2.232,0.792,9.432,8.208,9.72c9,0.288,10.872-8.496,10.872-8.496
					c0.288-1.08,1.368-1.8,2.448-1.584c1.152,0.288,1.872,1.368,1.584,2.52c0,0-1.512,7.272-8.064,10.368
					c-0.504,9.288-7.992,16.632-17.136,16.632c-9.144,0-16.632-7.344-17.136-16.632c-6.552-3.096-8.064-10.368-8.064-10.368
					c-0.288-1.152,0.432-2.232,1.584-2.52c1.08-0.216,2.16,0.504,2.448,1.584c0,0,1.872,8.784,10.872,8.496
					c7.416-0.288,8.136-7.488,8.208-9.72c0-0.432,0-0.72,0-0.792l0,0l0,0v-0.072l0,0l0,0l0,0l0,0v-0.072l0,0l0,0l0,0l0,0
					l0.072-0.072l0,0l0,0l0,0l0,0l0,0l0,0l0,0v-0.072l0,0l0,0l0,0l0,0l0,0l0,0v-0.072l0,0l0,0l0,0l0,0l0,0l0,0v-0.072l0,0l0,0l0,0
					l0,0l0,0l0,0l0,0v-0.072l0,0l0,0l0,0l0,0l0.072-0.072l0,0l0,0V122.216L149.456,122.216L149.456,122.216z M168.248,136.328
					c-0.144,0-0.216,0.072-0.36,0.072h0.072C168.032,136.4,168.104,136.328,168.248,136.328z" fill="#2E150E"></path>
        <path style="" d="M141.32,146.912c2.664,2.448,6.192,3.96,10.08,3.96c3.888,0,7.416-1.512,10.08-3.96
					c-1.584-3.24-5.472-5.544-10.08-5.544C146.792,141.368,142.904,143.672,141.32,146.912z" fill="#FF9288"></path>
			</g>
      <g>
				<path style="" d="M103.52,92.984c-0.72,1.296-2.448,1.872-3.744,1.152c-1.368-0.72-1.872-2.376-1.152-3.744
					c1.368-2.592,3.168-4.752,5.256-6.264c2.16-1.656,4.68-2.592,7.344-2.88c4.032-0.36,7.992,1.008,11.304,3.744
					c3.096,2.664,5.616,6.48,6.984,11.088c0.432,1.512-0.432,3.024-1.872,3.456c-1.512,0.432-3.024-0.432-3.456-1.872
					c-1.008-3.528-2.88-6.48-5.256-8.424c-2.088-1.8-4.68-2.736-7.2-2.448c-1.656,0.144-3.168,0.792-4.536,1.8
					C105.752,89.6,104.456,91.112,103.52,92.984z" fill="#2E150E"></path>
        <path style="" d="M197.912,92.984c0.72,1.296,2.376,1.872,3.744,1.152c1.368-0.72,1.872-2.376,1.152-3.744
					c-1.368-2.592-3.168-4.752-5.256-6.264c-2.16-1.656-4.68-2.592-7.344-2.88c-4.032-0.36-7.992,1.008-11.304,3.744
					c-3.096,2.664-5.616,6.48-6.984,11.088c-0.432,1.512,0.432,3.024,1.872,3.456c1.512,0.432,3.024-0.432,3.456-1.872
					c1.008-3.528,2.88-6.48,5.184-8.424c2.16-1.8,4.752-2.736,7.272-2.448c1.656,0.144,3.168,0.792,4.536,1.8
					C195.68,89.6,196.976,91.112,197.912,92.984z" fill="#2E150E"></path>
			</g>
      <ellipse style="" cx="114.104" cy="66.344" rx="13.824" ry="4.968" fill="#F3F4F4"></ellipse>
      <ellipse style="" cx="183.08" cy="66.344" rx="13.824" ry="4.968" fill="#F3F4F4"></ellipse>
      <path style="" d="M197.84,169.376c0,0-29.448,33.336-39.6,31.104c-10.152-2.16-14.184-11.808-14.184-11.808
				s10.44,8.856,16.272,8.064c5.904-0.792,30.744-25.416,30.744-25.416L197.84,169.376z" fill="#2E150E"></path>
      <path style="" d="M214.688,161.024c0,0,4.896,1.944,9.216,5.976c4.392,3.96,7.92,8.208,7.92,8.208
				s-7.128-6.336-12.6-8.64s-5.472-2.088-5.256-2.808S214.688,161.024,214.688,161.024z" fill="#2E150E"></path>
      <path style="" d="M220.664,156.632c0.504-0.36,4.608-2.304,9.936-4.176c5.4-1.872,8.928-2.016,8.928-2.016
				s-7.2-0.432-13.896,0.648s-6.624,2.232-6.624,2.88c-0.072,0.576,1.296,2.952,1.296,2.952L220.664,156.632z"
            fill="#2E150E"></path>
		</g>
	</g>
</g>
</svg>
    </g>
  </g>
  <g id="shape_8pOeprnqS2" ref="shape_8pOeprnqS2" key="shape_8pOeprnqS2"
     transform="translate(358.60528564453,266.01893234253) rotate(0,154.60764063194,45.646396596631) scale(1,1)"
     style="cursor:move;display:inline;opacity:1;" filter="">
    <g style="display:inline">
      <svg xmlns="http://www.w3.org/2000/svg" version="1.1" xmlns:xlink="http://www.w3.org/1999/xlink" overflow="hidden"
           style="top:0; left: 0" width="168.6215275469453" height="91.292793193263"
           viewBox="0 0 163.6215275469453 96.9335836578772" preserveAspectRatio="none" data-parent="shape_8pOeprnqS2">
        <rect fill="rgba(0,0,0,0)" width="168.6215275469453" height="91.292793193263"></rect>
        <rect opacity="0"></rect>
        <g transform="translate(0 0)" data-width="158.6215275469453">
          <path fill="rgb(25, 25, 25)"
                d="M11.12-27.04L15.52-39.93L1.28-39.93L1.28-47.77L18.24-47.77L21.68-57.69L22.00-57.69L22.08-57.77L32.88-57.77L29.28-47.77L59.93-47.77L57.61-55.37L67.45-55.37L72.25-39.93L64.89-39.93L62.33-39.93L50.01-39.93L50.01-25.28L71.13-33.76L71.13-24.72L50.01-16.32L50.01-9.04Q50.01-8.00 50.73-7.28Q51.45-6.56 52.49-6.56L52.49-6.56L71.61-6.56L68.97 0.08L49.13 0.08L46.57 0.08Q44.97 0.08 43.61-0.52Q42.25-1.12 41.25-2.12Q40.25-3.12 39.65-4.48Q39.05-5.84 39.05-7.44L39.05-7.44L39.05-12.00L23.28-5.76L23.28-14.64L39.05-20.96L39.05-39.93L26.48-39.93L12.24 0.08L1.44 0.08L11.12-27.04Z"
                transform="translate(5 68.7296313348052)"></path>
          <path fill="rgb(25, 25, 25)"
                d="M6.96-57.77L24.00-57.77Q26.96-57.77 28.96-55.49Q30.96-53.21 30.96-49.93L30.96-49.93L30.96-7.28Q30.96-5.76 30.48-4.40L30.48-4.40Q30.24-3.68 29.88-3.08Q29.52-2.48 29.12-2.08L29.12-2.08Q28.32-1.12 26.80-0.40L26.80-0.40Q25.68 0.16 24.24 0.16L24.24 0.16L22.32 0.16L16.56 0.08L18.88-6.48L19.68-6.48Q20.24-6.48 20.80-6.96L20.80-6.96Q21.28-7.52 21.28-8.24L21.28-8.24L21.28-19.44L16.80-19.44L16.80-12.48L14.56 0.16L4.72 0.16L6.96-12.48L6.96-57.77ZM75.29-42.81L75.29-37.21L69.85-37.21L75.29-32.00L64.09-32.00L58.65-37.21L48.97-37.21L43.45-32.00L32.08-32.00L37.61-37.21L32.08-37.21L32.08-42.81L48.09-42.81L48.09-46.01L33.12-46.01L33.12-51.69L35.20-51.53L33.84-56.33L44.81-56.33L46.25-51.69L48.09-51.69L48.09-57.69L58.89-57.69L58.89-51.69L61.21-51.69L62.73-56.33L73.69-56.33L72.33-51.69L74.33-51.69L74.33-46.01L58.89-46.01L58.89-42.81L75.29-42.81ZM75.29-19.12L75.29-4.80Q75.29-3.92 75.05-3.12L75.05-3.12Q74.81-2.24 74.01-1.44L74.01-1.44Q73.13-0.72 71.93-0.24L71.93-0.24Q70.41 0.16 68.49 0.16L68.49 0.16L45.37 0.16L46.97-5.12L63.05-5.12Q64.01-5.12 64.25-5.60L64.25-5.60Q64.41-5.84 64.49-6.08Q64.57-6.32 64.57-6.56L64.57-6.56L64.57-13.52L33.76-13.52L36.89-23.04L47.61-23.04L46.49-19.12L60.81-19.12L62.01-24.72L34.00-24.72L34.00-30.32L73.61-30.32L71.69-19.12L75.29-19.12ZM60.97-11.84L60.97-6.56L32.08-6.56L32.08-11.84L60.97-11.84ZM21.28-26.08L21.28-35.77L16.80-35.77L16.80-26.08L21.28-26.08ZM21.28-42.49L21.28-49.53Q21.28-51.13 19.52-51.13L19.52-51.13L16.80-51.13L16.80-42.49L21.28-42.49Z"
                transform="translate(78.61031528291129 68.7296313348052)"></path>
        </g>
      </svg>
    </g>
  </g>
  <g id="shape_lkCdCf9iXY" ref="shape_lkCdCf9iXY" key="shape_lkCdCf9iXY"
     transform="translate(358.60530090332,344.29886245728) rotate(0,159.21044066459,23.487764189032) scale(1,1)"
     style="cursor:move;display:inline;opacity:1;" filter="">
    <g style="display:inline">
      <svg xmlns="http://www.w3.org/2000/svg" version="1.1" xmlns:xlink="http://www.w3.org/1999/xlink" overflow="hidden"
           style="top:0; left: 0" width="251.9787608590704" height="46.975528378064"
           viewBox="0 0 246.9787608590704 51.082574976790234" preserveAspectRatio="none" data-parent="shape_lkCdCf9iXY">
        <rect fill="rgba(0,0,0,0)" width="251.9787608590704" height="46.975528378064"></rect>
        <rect opacity="0"></rect>
        <g transform="translate(0 0)" data-width="233.2912261467372">
          <path fill="rgb(25, 25, 25)" d="M20.18 0L2.84 0L2.84-27.75L6.51-27.75L6.51-3.27L20.18-3.27L20.18 0Z"
                transform="translate(5 35.08969766838425) skewX(-15)"></path>
          <path fill="rgb(25, 25, 25)"
                d="M1.87-13.51L1.87-13.51Q1.87-20.42 5.58-24.33Q9.29-28.24 15.16-28.24L15.16-28.24Q19.00-28.24 22.09-26.40Q25.17-24.57 26.79-21.28Q28.41-18.00 28.41-13.84L28.41-13.84Q28.41-9.61 26.71-6.28Q25.00-2.95 21.88-1.24Q18.76 0.47 15.14 0.47L15.14 0.47Q11.22 0.47 8.14-1.42Q5.05-3.31 3.46-6.59Q1.87-9.86 1.87-13.51ZM5.66-13.46L5.66-13.46Q5.66-8.44 8.36-5.55Q11.05-2.67 15.12-2.67L15.12-2.67Q19.27-2.67 21.95-5.58Q24.62-8.50 24.62-13.85L24.62-13.85Q24.62-17.24 23.48-19.77Q22.33-22.30 20.13-23.69Q17.92-25.08 15.18-25.08L15.18-25.08Q11.28-25.08 8.47-22.40Q5.66-19.72 5.66-13.46Z"
                transform="translate(26.557263022809956 35.08969766838425) skewX(-15)"></path>
          <path fill="rgb(25, 25, 25)"
                d="M6.47 0L2.95 0L2.95-27.75L6.72-27.75L21.29-5.96L21.29-27.75L24.81-27.75L24.81 0L21.05 0L6.47-21.80L6.47 0Z"
                transform="translate(56.70714888350904 35.08969766838425) skewX(-15)"></path>
          <path fill="rgb(25, 25, 25)"
                d="M24.13-10.88L15.97-10.88L15.97-14.14L27.73-14.16L27.73-3.86Q25.02-1.70 22.14-0.62Q19.27 0.47 16.24 0.47L16.24 0.47Q12.15 0.47 8.81-1.28Q5.47-3.03 3.77-6.34Q2.06-9.65 2.06-13.74L2.06-13.74Q2.06-17.79 3.76-21.30Q5.45-24.81 8.63-26.52Q11.81-28.22 15.96-28.22L15.96-28.22Q18.96-28.22 21.40-27.24Q23.83-26.27 25.21-24.53Q26.59-22.79 27.31-19.99L27.31-19.99L24.00-19.08Q23.37-21.20 22.45-22.41Q21.52-23.62 19.80-24.35Q18.07-25.08 15.97-25.08L15.97-25.08Q13.46-25.08 11.62-24.31Q9.78-23.54 8.66-22.30Q7.53-21.05 6.91-19.55L6.91-19.55Q5.85-16.98 5.85-13.97L5.85-13.97Q5.85-10.26 7.13-7.76Q8.40-5.26 10.84-4.05Q13.29-2.84 16.03-2.84L16.03-2.84Q18.42-2.84 20.69-3.76Q22.96-4.67 24.13-5.72L24.13-5.72L24.13-10.88Z"
                transform="translate(84.69941579372495 35.08969766838425) skewX(-15)"></path>
          <path fill="rgb(25, 25, 25)" d=""
                transform="translate(114.84930165442404 35.08969766838425) skewX(-15)"></path>
          <path fill="rgb(25, 25, 25)"
                d="M13.72 0L10.05 0L10.05-24.47L0.91-24.47L0.91-27.75L22.90-27.75L22.90-24.47L13.72-24.47L13.72 0Z"
                transform="translate(125.61846992481813 35.08969766838425) skewX(-15)"></path>
          <path fill="rgb(25, 25, 25)"
                d="M23.77 0L3.07 0L3.07-27.75L23.13-27.75L23.13-24.47L6.74-24.47L6.74-15.97L22.09-15.97L22.09-12.72L6.74-12.72L6.74-3.27L23.77-3.27L23.77 0Z"
                transform="translate(149.2954989340677 35.08969766838425) skewX(-15)"></path>
          <path fill="rgb(25, 25, 25)"
                d="M6.47 0L2.95 0L2.95-27.75L6.72-27.75L21.29-5.96L21.29-27.75L24.81-27.75L24.81 0L21.05 0L6.47-21.80L6.47 0Z"
                transform="translate(175.1490733758222 35.08969766838425) skewX(-15)"></path>
          <path fill="rgb(25, 25, 25)"
                d="M24.13-10.88L15.97-10.88L15.97-14.14L27.73-14.16L27.73-3.86Q25.02-1.70 22.14-0.62Q19.27 0.47 16.24 0.47L16.24 0.47Q12.15 0.47 8.81-1.28Q5.47-3.03 3.77-6.34Q2.06-9.65 2.06-13.74L2.06-13.74Q2.06-17.79 3.76-21.30Q5.45-24.81 8.63-26.52Q11.81-28.22 15.96-28.22L15.96-28.22Q18.96-28.22 21.40-27.24Q23.83-26.27 25.21-24.53Q26.59-22.79 27.31-19.99L27.31-19.99L24.00-19.08Q23.37-21.20 22.45-22.41Q21.52-23.62 19.80-24.35Q18.07-25.08 15.97-25.08L15.97-25.08Q13.46-25.08 11.62-24.31Q9.78-23.54 8.66-22.30Q7.53-21.05 6.91-19.55L6.91-19.55Q5.85-16.98 5.85-13.97L5.85-13.97Q5.85-10.26 7.13-7.76Q8.40-5.26 10.84-4.05Q13.29-2.84 16.03-2.84L16.03-2.84Q18.42-2.84 20.69-3.76Q22.96-4.67 24.13-5.72L24.13-5.72L24.13-10.88Z"
                transform="translate(203.14134028603812 35.08969766838425) skewX(-15)"></path>
        </g>
      </svg>
    </g>
  </g>
</svg>
